<?xml version="1.0" encoding="UTF-8"?>
<svg id="a" data-name="Layer 1" xmlns="http://www.w3.org/2000/svg" viewBox="0 0 512 512">
  <defs>
    <style>
      .b {
        fill: none;
      }

      .c {
        fill: #efddbe;
      }
    </style>
  </defs>
  <g>
    <g>
      <path class="c" d="M101.99,112.34c-.62,2.08-5.83,5.1-6.97,7.6-11.03,24.25-25.29,47.25-34.87,72.13-1.56,4.16-6.97,17.38-7.7,20.29-.73,3.44.1,7.18-.2,10.72-.83,7.18-6.14,31.43-4.68,36.32.31,1.25,1.98,1.87,2.29,3.85,2.5,17.8,5,34.45,9.99,51.94,6.14,21.55,18.21,41.63,29.56,60.47,3.33,5.62,14.36,9.16,9.78,18.21-.31.62-9.68,9.99-10.3,10.3-1.43.72-2.67.87-3.78.63-4.35-.93-6.66-7.93-10.89-10.42-1.67-1.04-3.12,1.25-4.89.1-11.34-6.87-32.26-46.63-36.22-59.95-8.43-28.93-17.7-77.12-14.99-106.68.31-3.23,2.08-4.78,2.5-7.29.52-3.43-.31-7.28,0-10.93,3.02-30.08,17.07-51.31,31.74-76.39,3.96-6.66,6.66-13.33,11.87-19.67,2.36-2.82,5.97-6.35,9.77-8.75h0c2.23-1.41,4.52-2.43,6.68-2.7,4.06-.52,6.87.73,9.88.94,1.56,0,5.41-1.98,6.35-.83l.2.1s.1,1.56.73,2.18c2.19,2.6,5.31,3.85,4.17,7.81Z"/>
      <path class="c" d="M412.46,82.53c-.28.6-.73,1.31-1.38,2.17-.02.03-.04.06-.06.09-2.91,3.85-10.51,11.13-15.3,11.55-4.79.41-6.14-5.31-9.05-6.77-1.87-.93-3.54-.31-5.31-.73-4.48-1.35-16.55-9.68-22.69-12.59-10.1-4.89-20.82-11.03-31.23-14.88-23.21-8.64-53.08-11.97-77.54-13.74-10.72-.73-12.7,3.54-21.03,4.68-28,3.85-41.63,7.7-66.82,20.71-13.12,6.76-23.42,11.76-36.84,17.9-2.08.94-11.97,8.64-13.43,6.66-.1-.21,0-2.29-.62-3.65-1.4-2.71-7.59-6.6-9.7-9.82-.4-.6-.65-1.19-.7-1.73-.31-3.12,4.89-7.7,7.39-9.68,21.23-16.96,57.03-38.4,83.47-44.13,2.08-.42,4.06,0,5.72-.31,13.12-2.71,30.91-7.49,43.71-8.54,10.62-.83,22.17.52,32.99,0,2.5,0,4.48-1.45,7.29-1.35,5.31.21,11.24,3.85,16.03,4.68,19.67,3.54,34.66,9.68,53.5,15.82,4.99,1.66,11.97,2.18,16.45,4.16,14.36,6.25,26.54,13.63,38.61,23.42.62.52,1.87.41,2.19.73h.31c.62.73-.31,6.66.31,8.85.69,2.34,3.16,2.76,3.91,4.13h0c.3.56.32,1.28-.18,2.35Z"/>
      <path class="c" d="M490,298.56c-.2,3.75.83,10.2,0,13.32-.62,2.4-9.68,3.23-11.45,6.77-2.29,4.48,1.56,16.13.62,22.48-.31,1.98-3.54,8.75-4.58,11.24-3.96,8.95-12.39,24.25-18.52,31.33-2.6,3.02-5.62,5.1-7.81,7.91-1.98,2.6-5.31,10.72-8.54,11.03-2.91.2-4.68-2.08-7.29-2.5-6.24-.94-10.72,3.75-14.67-2.4-1.46-2.39,4.27-8.12,5.72-11.34,3.75-8.12,6.24-18.01,10.51-26.02,2.08-3.96,14.36-19.36,14.67-20.61.52-1.77,0-3.85.31-5.72,1.98-8.43,5.2-18.63,7.39-27.89,2.4-10.2,6.35-18.63,7.08-29.45.42-5.93.31-13.63,0-19.57-.52-11.34-2.81-21.54-3.75-32.78-.31-3.85.42-8.22,0-12.18-1.87-16.76-16.97-48.29-25.71-63.07-4.06-6.98-13.74-16.66-15.4-23.52-.52-1.87,0-3.96-.42-5.62-.93-3.44-5.93-2.5-4.68-11.14.83-6.04,8.85-8.43,12.08-13.43,1.74-.87,3.82-.89,5.78-.47,0,0,0,0,0,0,1.32.28,2.59.76,3.68,1.3v.2c1.98,3.96,5.41,7.6,7.29,11.55,2.5,5.31,11.03,22.48,12.18,26.65.73,2.71-.62,10.09,3.33,11.24,4.68,1.35,4.99-1.56,9.57,3.85,6.98,8.22,14.88,34.66,17.49,45.79,4.38,19.56,11.66,54.74,8.85,73.89-.31,2.08-3.23,21.86-3.75,29.14Z"/>
      <path class="c" d="M419.43,422.32c-.2-.83-10.72-11.34-12.07-12.28-6.56-4.48-11.03-1.14-16.34,3.02-15.51,12.49-36.01,22.28-54.43,30.71-5.93,2.71-14.36,4.68-19.46,7.29-1.77.83-2.81,2.81-4.06,3.23-2.34.68-4.88,1.24-7.54,1.7-.56.1-1.13.19-1.71.28-.42.06-.84.13-1.26.19-1.27.19-2.56.36-3.86.52-.25.03-.5.06-.75.09-1.53.18-3.07.35-4.61.52-.03,0-.07,0-.1,0-1.12.12-2.23.23-3.34.35-.06,0-.13.01-.2.02-.58.06-1.17.12-1.75.18-.58.06-1.16.12-1.73.18-.64.07-1.28.14-1.91.21-.36.04-.73.08-1.09.12-1.8.21-3.55.44-5.2.7-7.5,1.14-12.81,4.27-20.82,3.64-17.59-1.35-39.87-5.31-56.83-11.24-19.98-6.97-43.61-16.96-59.84-30.08-2.08-1.77-3.85-4.37-6.04-6.14-6.03-4.89-12.59-9.37-18.42-14.47-9.47,3.85-12.28,9.89-11.35,19.98.38,3.92,1.09,6.33,2.65,8.57h0c.96,1.38,2.26,2.69,4.01,4.24,5.83,5.2,19.15,14.47,26.13,17.7,6.24,2.91,5.1,3.54,8.12,5.51,3.02,1.98,10.51,5.62,14.15,7.5,3.65,1.87,11.35,3.12,14.26,5.2.83.62,2.71,5.2,3.64,4.27.21-.31.42-3.85,2.4-5.51.83-.63,5.83-3.02,6.56-2.92,3.12.73,3.43,6.56,4.58,8.85.83,1.56,2.29,2.29,2.81,3.23,1.04,1.87.1,5.2,2.6,5.93,5.93,1.67,13.33,1.56,19.36,3.75,12.91.52,24.36,7.18,37.57,6.14,3.96-.31,9.47-2.08,13.43-2.39,4.68-.31,9.88.52,14.57,0,4.17-.42,9.26-3.02,13.43-3.54,3.22-.31,6.55.41,9.68,0,29.56-3.96,61.3-24.25,87.84-37.36,1.87-.94,4.37-1.04,6.35-2.08,2.5-1.35,13.43-10.72,15.61-12.91v-.41c1.25-1.35.41-4.06,1.14-5.52,1.25-2.7,4.68-3.96,3.85-6.97ZM315.66,465.62c-1.25-.31-1.77-1.66-2.6-2.29-1.25-.83-3.02-1.15-3.02-1.15v-.1c-1.04-.73,1.77-4.27,3.23-4.68,1.56-.42,5.52-.42,7.18-.21,6.04.83,2.81,10.72-4.79,8.43ZM340.43,456.15c-.73.73-5.31.73-6.03,0-2.5-2.5,3.96-6.97,6.03-4.89.21.21.1,4.68,0,4.89Z"/>
    </g>
    <g>
      <path class="c" d="M371.94,392.4c-19.26,15.61-39.97,28.73-64.11,35.6-10.2,2.92-25.82,6.56-36.32,7.5-11.76,1.04-7.08-.42-6.56-7.81.52-8.33-.73-17.38,0-25.61.41-6.24,3.02-12.8,2.39-19.36-.83-9.36-.31-13.01,0-21.86.1-3.23-.73-19.46,0-20.09.83-.72,8.22-1.04,10.09-1.45,5-1.15,11.87-3.33,16.66-5.2,2.29-.94,6.35-3.85,8.12-4.17,3.33-.52,9.16,8.02,13.22,8.02,1.03,0,3.34-2.13,4.09-2.15.45.75-.83,5.41.49,7.36.62.93,2.71,1.35,3.75,2.39,8.33,7.39,20.3,21.02,30.18,25.81,3.33,1.56,8.64,2.08,11.24,4.58,2.39,2.39,2.6,7.29,4.79,9.78,1.04,1.25,3.85,1.77,4.27,3.02,1.14,3.64-1.04,2.6-2.29,3.64Z"/>
      <path class="c" d="M242.88,403.32c1.25-14.46-3.33-36.74-4.89-52.25-.31-3.33,1.56-8.43-1.98-10.2-4.68-2.29-16.45-2.08-19.67-5.31l-.1.1c-.93-.93-1.87-6.35-4.48-7.08-2.6-.83-2.6,3.02-3.12,3.54-.83.83-4.68-1.25-6.56-1.25-4.27.2-7.81,6.03-10.93,8.53-15.61,12.81-31.02,25.81-46.21,38.93-2.39,2.08-6.87,4.58-9.05,6.66-4.06,3.96,1.77,5.51,3.65,7.28,24.98,24.36,55.68,34.24,89.41,41.95,2.6-.83,12.8,2.5,13.94,1.25.21-.21-.1-3.75.21-5.2.41-1.77,1.87-3.85,1.98-5.31.52-5.83-2.81-14.67-2.19-21.65ZM179.08,401.45c-.83.21-5.41-1.25-5.41-1.25h.1c-.62-.52-.21-5.51,1.77-6.03,4.37-1.15,7.7,6.14,3.54,7.28Z"/>
      <path class="c" d="M239.43,158.96c-.2,1.98.31,8.54,0,9.06l-.2-.1c-1.56,1.56-7.7.93-9.99,1.45-5.72,1.35-13.32,4.38-19.04,6.45-2.92,1.04-5.52,3.96-8.96,2.92-1.45-.42-4.58-4.58-6.24-5.93-13.32-11.66-29.87-23.1-42.05-35.81-1.14-1.25-1.56-3.02-2.92-4.27-3.64-3.33-9.78-2.81-11.34-9.26-1.25-4.89.52-3.33,2.08-4.68,30.5-24.56,58.8-35.7,97.94-39.55,1.25-.1,2.7-1.35,3.64-1.14,2.71.52,2.08,7.81,1.87,10.3-1.66,23-2.6,47.25-4.79,70.56Z"/>
      <path class="c" d="M371.31,124.26c-.94,1.98-6.04,3.54-7.29,6.03-1.77-1.25,1.77-4.78.62-6.14,0,0-2.91-.83-3.02-.83-3.12-.1-15.72,9.16-10.41,12.49.62.41,6.56.83,3.64,3.02-.2.1-1.77.1-3.02,1.14-3.02,2.4-2.29,4.27-3.54,6.25-1.04,1.45-3.65.93-5.52,1.77-5.72,2.6-8.85,9.36-15.82,12.18-1.98.73-5.3,0-6.03,2.5-.42,1.67.31,3.85-.62,5.41-.62.83-5.2,3.23-6.66,4.27-1.67,1.14-5.1,6.04-7.39,4.17-.2-.1,2.71-3.44-.62-4.89-2.71-1.14-2.39,4.17-3.02,4.79-1.14,1.25-15.2-4.58-18.21-5.52-3.44-1.04-11.55-1.77-13.43-3.54-2.19-2.08-.94-7.6-1.25-10.93-2.08-21.75-4.79-43.82-6.14-65.67,0-1.98-.41-12.39,0-12.81.83-.83,4.17,1.04,5.52,1.15,7.49.73,14.05,1.25,21.54,2.81,3.54.73,26.44,6.56,26.44,8.85,0,.41-5.72,6.24-.62,7.91,5.2,1.67,1.45-8.12,1.87-8.53v.1c1.56-1.56,11.45,5.2,13.74,6.35,13.63,6.87,22.48,14.67,34.45,21.44,3.44,1.87,7.7.31,4.79,6.25Z"/>
      <path class="c" d="M432,293.02c-6.55,14.88-9.88,33.31-16.65,48.4-4.37,1.77-6.87,7.29-8.43,11.55-2.71,2.81-11.03,19.78-13.74,19.88-.41,0-4.78-1.15-5.62-1.46-9.89-4.06-23.1-22.07-30.29-30.5-5.1-5.93-4.58-4.37-7.81-11.55-4.37-9.57-8.75-6.14-12.6-9.89-.52-.52-.62-1.98-1.35-2.81-1.14-1.25-3.75-3.13-4.37-4.17-2.08-3.96.21-3.33,2.5-4.89,9.78-6.87,18.94-14.26,28.62-21.23,4.89-3.54,22.48-17.49,26.33-18.73,7.71-2.5,18.01-2.6,26.65-3.33,1.25,0,6.04-.42,7.29-.52,1.87,0,11.14-.42,11.55,0l-.2.2c1.04.94-1.15,7.08-1.25,9.05-.21,2.5-.31,7.5,0,9.68.1,1.14,1.77.42,2.18.83,3.12,2.91-1.46,6.56-2.81,9.47Z"/>
      <path class="c" d="M171.48,317.17c-6.66,8.22-15.2,15.4-21.96,23.1-8.64,9.68-17.07,19.46-25.61,29.14-.93,1.04-.93,2.6-1.35,2.91l-.1-.21s-4.27.31-4.58,0c-.31-.31-.2-1.45-.72-2.18-18.21-25.6-36.12-51.94-39.45-84.62-.52-5.41,1.14-9.57,1.25-13.32,0-1.87-1.88-2.5-2.29-3.75-2.19-6.76,2.81-3.02,6.45-2.81,7.7.52,29.66-.21,35.08,2.6,3.23,1.66,8.02,7.08,11.14,7.08,1.46,0,3.12-2.19,4.16.83.52,1.56-.2,2.91,1.35,4.78,1.35,1.67,5.83,3.75,8.02,5.41,2.6,2.08,14.05,12.18,15.82,12.28,4.99.2,2.08-1.56,7.91,1.66,1.56.83,4.17.73,4.68,2.6.41,1.35,0,3.12.31,4.58,1.14,4.16,6.55,1.77-.1,9.89Z"/>
      <path class="c" d="M433.35,240.98c-1.98-8.54-2.6-17.28-4.58-25.92-2.08-8.64-5.41-18.21-8.85-26.44-6.56-15.82-15.72-29.77-25.61-43.72-1.35-.41-4.99,4.06-6.66,2.4-.52-.52.62-10.3,0-10.93v-.1c-1.98-2.08-8.53,9.05-9.68,10.41-10.51,11.86-21.23,23.41-31.64,35.28-4.68,5.31-9.89,10.41-14.57,15.82l47.46,36.53c1.67,1.04,3.23-.73,5.41-.73,5.31.21,4.06,3.75,6.14,6.14,2.7,3.02,18.52,1.98,23.21,2.29,2.08.1,3.85,1.25,5.93,1.35,2.6.21,10.09.52,12.07-.1.62-.21,2.19-1.46,1.35-2.29ZM369.97,178.85c-2.6.73-9.06-2.39-9.06-4.17,0-.83,4.27-3.75,5.62-4.06v-.1c7.18-1.56,6.35,7.6,3.44,8.33Z"/>
      <path class="c" d="M170.03,191.76c-2.4-2.71-4.89-7.08-7.29-9.78-10.72-12.07-22.38-23.1-32.89-35.18-1.35-1.56-5.73-8.85-6.66-9.15-1.46-.52-4.48,3.02-5.52,4.16-19.56,22.07-30.91,51.31-38.61,79.31.41,3.33-3.64,21.34-2.71,22.28v-.1c.42.41,9.68.1,11.55,0,1.25-.1,2.5-1.14,3.75-1.14,9.57-.83,19.36-.62,28.83-2.71,16.97-11.55,32.78-24.87,49.54-36.74,1.56-1.14,5.62-2.19,6.03-3.75,1.04-3.33-3.85-4.79-6.03-7.18ZM98.21,226.73c-.52,2.81-4.78,6.45-7.7,5.62-3.02-.83-6.24-7.81-4.37-9.57h.1c.1-.21,3.64-1.35,4.17-1.35,2.5-.31,8.33,2.5,7.8,5.31Z"/>
      <path class="c" d="M184.6,288.33s0,2.6-.62,3.64c-1.25,1.98-1.66.31-2.71.21-1.14,0-3.85-.1-4.06-.21-.62-.41,0-4.37,1.87-4.89.73-.2,5.2,1.04,5.41,1.25h.1Z"/>
    </g>
    <path class="c" d="M293.76,217.8c-29.77-32.58-87.95-11.14-91.9,32.26-.42,4.48.2,21.65,2.7,24.77l.1-.1c.42.52,2.29.41,2.92,1.35.93,1.25.62,6.24,1.98,8.95,6.56,13.32,28.41,25.29,42.98,26.44,2.08.1,3.44-1.25,4.89-1.25,13.22-.62,22.07-2.4,32.78-10.93,5.52-4.48,8.64-9.68,12.7-15.2,1.14-1.56,4.27-3.44,4.68-4.99.42-1.56-.1-3.33.21-4.68,5.52-23.31,2.08-38.93-14.05-56.62ZM248.8,206.87l2.39,2.39-3.02,3.02-2.39-2.39,3.02-3.02ZM267.53,284.1c-9.36,3.64-25.29,2.71-31.64-6.03-1.66-2.19-.93-5.1-1.25-5.41-.94-.83-4.37.73-6.66-4.89-2.81-6.87-1.87-17.69,1.25-24.35,3.85-8.43,16.14-17.8,25.61-17.07,1.98.1,11.87,1.98,12.59,2.7h-.1c.83.83.72,3.54,1.66,4.48,3.02,3.12,7.6,4.06,10.72,5.62,2.81,1.45,5.73,10.3,6.04,13.43,1.46,12.7-6.24,26.85-18.21,31.54ZM294.39,257.98c-.21.2-4.68.2-4.89,0-1.98-1.98,2.5-8.54,4.89-6.04v-.1c.21.31.21,5.93,0,6.14ZM292,247.05c.72-.63,3.64,1.14,3.64,1.87,0,3.33-5.52,0-3.64-1.87Z"/>
  </g>
  <rect class="b" x=".27" y=".27" width="511.45" height="511.45"/>
</svg>